<svg id="Layer_1" data-name="Layer 1" xmlns="http://www.w3.org/2000/svg" viewBox="0 0 122.88 54.2"><defs><style>.cls-1,.cls-2{fill-rule:evenodd;}.cls-2{fill:#de9c2d;}</style></defs><title>lubricant-oil</title><path class="cls-1" d="M38.85,45.1l-29.71-32a28.49,28.49,0,0,1,8,0L47.56,24.76l7.91-7.45A21.33,21.33,0,0,1,65.59,13h9.17V7.48H70.87a1.61,1.61,0,0,1-1.61-1.6V1.61A1.61,1.61,0,0,1,70.87,0H87a1.62,1.62,0,0,1,1.61,1.61V5.88A1.61,1.61,0,0,1,87,7.48h-3.9V13h26.74a13,13,0,0,1,13,13V44.59H115V27a6.06,6.06,0,0,0-6-6h-7.45V41.3c.13,3.78-.79,6.79-2.83,9s-4.94,3.42-9,3.94H57c-7.55-.32-13.27-3.92-18.12-9.1Z"/><path class="cls-2" d="M7.78,17c.93,4,4.2,7.86,6.28,11.59,3.53,6.33.87,12.9-6.28,12.9-7.8,0-9.71-7.14-5.84-13.66C4,24.38,6.92,20.77,7.78,17ZM2.37,32.24A.83.83,0,1,1,4,32.09a8.11,8.11,0,0,0,.81,3A5.25,5.25,0,0,0,6.89,37.2c1.55.92-1.07,3.36-3.53-1.36a9.85,9.85,0,0,1-1-3.6Z"/></svg>