<svg id="SvgjsSvg1001" width="288" height="288" xmlns="http://www.w3.org/2000/svg" version="1.1" xmlns:xlink="http://www.w3.org/1999/xlink" xmlns:svgjs="http://svgjs.com/svgjs"><defs id="SvgjsDefs1002"></defs><g id="SvgjsG1008"><svg xmlns="http://www.w3.org/2000/svg" viewBox="0 0 64 64" width="288" height="288"><path d="M26,9H19a3,3,0,0,0,0,6h7a3,3,0,0,0,0-6Zm0,4H19a1,1,0,0,1,0-2h7a1,1,0,0,1,0,2Zm28.36,5.88a3,3,0,0,0-.87-2.12l-4.25-4.25a3,3,0,0,0-4.24,0l-3.07,3.08-1.31-1.3a1,1,0,0,0-.7-.29H37.71a3,3,0,0,1-2.79-1.89l-2-5A5,5,0,0,0,28.29,4H16a5,5,0,0,0-5,5V55a5,5,0,0,0,5,5H48a5,5,0,0,0,5-5V27a1,1,0,0,0-.3-.71L50.44,24l3.05-3A3,3,0,0,0,54.36,18.88ZM51,47H40.31l0,0-7-7,7-7,0,0H51ZM37.59,47H26.41L32,41.41ZM32,38.59,26.41,33H37.59ZM30.59,40l-6.95,7,.05,0H13V33H23.69l-.05,0ZM48,58H16a3,3,0,0,1-3-3V49H51v6A3,3,0,0,1,48,58Zm3-27H13V9a3,3,0,0,1,3-3H28.29a3,3,0,0,1,2.79,1.89l2,5A5,5,0,0,0,37.71,16h1.8L51,27.42Zm1.07-11.41-3,3L43.35,17l3.06-3.07a1,1,0,0,1,1.42,0l4.24,4.24a1,1,0,0,1,0,1.42Z" data-name="44 Oil, Car, Fuel, Mechanic, Petrol Cana" fill="#eabcbc" class="color000 svgShape"></path></svg></g></svg>